<svg width="540" height="120" viewBox="0 0 540 120" xmlns="http://www.w3.org/2000/svg" role="img" aria-labelledby="memoroseLogoTitle">
  <title id="memoroseLogoTitle">Memorose logo</title>
  <defs>
    <path id="outerPetal" d="M50 50C44 43 40 36 39 28C38 23 40 18 43 16C46 14 49 15 50 18C51 15 54 14 57 16C60 18 62 23 61 28C60 36 56 43 50 50Z"/>
    <path id="innerPetal" d="M50 50C46 45 44 40 43 36C43 33 44 30 47 29C48 28 49 28 50 30C51 28 52 28 53 29C56 30 57 33 57 36C56 40 54 45 50 50Z"/>
    <linearGradient id="outerFill" x1="50" y1="16" x2="50" y2="50" gradientUnits="userSpaceOnUse">
      <stop offset="0" stop-color="#9CA3AF"/>
      <stop offset="1" stop-color="#6B7280"/>
    </linearGradient>
    <linearGradient id="innerFill" x1="50" y1="28" x2="50" y2="50" gradientUnits="userSpaceOnUse">
      <stop offset="0" stop-color="#D1D5DB"/>
      <stop offset="1" stop-color="#9CA3AF"/>
    </linearGradient>
  </defs>
  <g transform="translate(10, 10)" opacity="0.98">
    <g fill="url(#outerFill)">
      <use href="#outerPetal"/>
      <use href="#outerPetal" transform="rotate(72 50 50)"/>
      <use href="#outerPetal" transform="rotate(144 50 50)"/>
      <use href="#outerPetal" transform="rotate(216 50 50)"/>
      <use href="#outerPetal" transform="rotate(288 50 50)"/>
    </g>
    <g fill="url(#innerFill)">
      <use href="#innerPetal" transform="rotate(36 50 50)"/>
      <use href="#innerPetal" transform="rotate(108 50 50)"/>
      <use href="#innerPetal" transform="rotate(180 50 50)"/>
      <use href="#innerPetal" transform="rotate(252 50 50)"/>
      <use href="#innerPetal" transform="rotate(324 50 50)"/>
    </g>
    <circle cx="50" cy="50" r="5.5" fill="#4B5563"/>
  </g>
  <text x="125" y="76" font-family="'Playfair Display', 'Georgia', 'Times New Roman', serif" font-size="52" font-weight="700" letter-spacing="1.2" fill="#1a1a2e"><tspan font-style="italic">Memo</tspan><tspan font-style="italic" dx="2">rose</tspan></text>
</svg>
